name rise44.8762peak52.3436fall86.788.mot
datacolumns 19
datarows 14
range 0.03333600000000 0.05499500000000
endheader
time	ground_force1_vx	ground_force1_vy	ground_force1_vz	ground_force1_px	ground_force1_py	ground_force1_pz	ground_force2_vx	ground_force2_vy	ground_force2_vz	ground_force2_px	ground_force2_py	ground_force2_pz	ground_torque1_x	ground_torque1_y	ground_torque1_z	ground_torque2_x	ground_torque2_y	ground_torque2_z	
0.03333600000000	-14.29388100000000	44.32892100000000	-8.78637200000000	0.23876800000000	0.00000000000000	0.08782900000000	-48.69085000000000	786.97084199999995	-53.21171700000000	0.08360400000000	0.00000000000000	-0.09976200000000	0.00000000000000	-3.32582100000000	0.00000000000000	0.00000000000000	-14.91599400000000	0.00000000000000	
0.03499900000000	-15.47182300000000	50.46397200000000	-9.82998600000000	0.24606900000000	0.00000000000000	0.08704300000000	-49.62569100000000	785.18628799999999	-52.90297400000000	0.08278200000000	0.00000000000000	-0.09974200000000	0.00000000000000	-3.87935300000000	0.00000000000000	0.00000000000000	-15.05853900000000	0.00000000000000	
0.03666900000000	-16.41037100000000	56.49687600000000	-10.79514600000000	0.25282600000000	0.00000000000000	0.08641600000000	-50.58068300000000	783.28425700000003	-52.57527100000000	0.08195700000000	0.00000000000000	-0.09971500000000	0.00000000000000	-4.42697900000000	0.00000000000000	0.00000000000000	-15.20438000000000	0.00000000000000	
0.03833000000000	-17.08911500000000	62.36951600000000	-11.66473800000000	0.25909900000000	0.00000000000000	0.08592300000000	-51.55402100000000	781.26129700000001	-52.22820800000000	0.08112800000000	0.00000000000000	-0.09968200000000	0.00000000000000	-4.95804500000000	0.00000000000000	0.00000000000000	-15.35307000000000	0.00000000000000	
0.04000300000000	-17.50095000000000	68.04963900000000	-12.42760800000000	0.26494000000000	0.00000000000000	0.08554600000000	-52.54399300000000	779.11372700000004	-51.86137100000000	0.08029700000000	0.00000000000000	-0.09964200000000	0.00000000000000	-5.46395700000000	0.00000000000000	0.00000000000000	-15.50418200000000	0.00000000000000	
0.04166100000000	-17.65090800000000	73.52989400000000	-13.07840100000000	0.27039500000000	0.00000000000000	0.08526900000000	-53.54895200000000	776.83767899999998	-51.47434100000000	0.07946500000000	0.00000000000000	-0.09959500000000	0.00000000000000	-5.93838200000000	0.00000000000000	0.00000000000000	-15.65731000000000	0.00000000000000	
0.04334400000000	-17.55420800000000	78.82495900000001	-13.61696400000000	0.27550300000000	0.00000000000000	0.08507700000000	-54.56729500000000	774.42916300000002	-51.06670500000000	0.07863400000000	0.00000000000000	-0.09954100000000	0.00000000000000	-6.37723900000000	0.00000000000000	0.00000000000000	-15.81205900000000	0.00000000000000	
0.04499700000000	-17.23379200000000	83.96733399999999	-14.04744200000000	0.28029600000000	0.00000000000000	0.08495800000000	-55.59742100000000	771.88412700000003	-50.63807000000000	0.07780300000000	0.00000000000000	-0.09948000000000	0.00000000000000	-6.77850900000000	0.00000000000000	0.00000000000000	-15.96803700000000	0.00000000000000	
0.04666200000000	-16.71766900000000	89.00238400000001	-14.37719600000000	0.28480300000000	0.00000000000000	0.08490300000000	-56.63770700000000	769.19851400000005	-50.18806800000000	0.07697400000000	0.00000000000000	-0.09941100000000	0.00000000000000	-7.14191700000000	0.00000000000000	0.00000000000000	-16.12485100000000	0.00000000000000	
0.04832800000000	-16.03629600000000	93.98315599999999	-14.61566700000000	0.28905100000000	0.00000000000000	0.08490200000000	-57.68646900000000	766.36832500000003	-49.71637500000000	0.07614800000000	0.00000000000000	-0.09933600000000	0.00000000000000	-7.46853100000000	0.00000000000000	0.00000000000000	-16.28209900000000	0.00000000000000	
0.05000200000000	-15.22021400000000	98.96545300000000	-14.77328000000000	0.29306000000000	0.00000000000000	0.08494800000000	-58.74194300000000	763.38966100000005	-49.22271400000000	0.07532700000000	0.00000000000000	-0.09925200000000	0.00000000000000	-7.76034300000000	0.00000000000000	0.00000000000000	-16.43936200000000	0.00000000000000	
0.05166400000000	-14.29807300000000	104.00348900000000	-14.86046600000000	0.29685000000000	0.00000000000000	0.08503400000000	-59.80226200000000	760.25876500000004	-48.70686300000000	0.07451100000000	0.00000000000000	-0.09916200000000	0.00000000000000	-8.01984500000000	0.00000000000000	0.00000000000000	-16.59620400000000	0.00000000000000	
0.05333000000000	-13.29514900000000	109.14639400000000	-14.88687500000000	0.30043800000000	0.00000000000000	0.08515400000000	-60.86544400000000	756.97204999999997	-48.16866400000000	0.07370000000000	0.00000000000000	-0.09906300000000	0.00000000000000	-8.24965900000000	0.00000000000000	0.00000000000000	-16.75216700000000	0.00000000000000	
0.05499500000000	-12.23235800000000	114.43566000000000	-14.86078500000000	0.30383800000000	0.00000000000000	0.08530300000000	-61.92938400000000	753.52612199999999	-47.60802500000000	0.07289700000000	0.00000000000000	-0.09895800000000	0.00000000000000	-8.45223000000000	0.00000000000000	0.00000000000000	-16.90677000000000	0.00000000000000	
